<?xml version="1.0" encoding="UTF-8" standalone="no"?>
<!-- Created with Inkscape (http://www.inkscape.org/) -->

<svg
   xmlns:osb="http://www.openswatchbook.org/uri/2009/osb"
   xmlns:dc="http://purl.org/dc/elements/1.1/"
   xmlns:cc="http://creativecommons.org/ns#"
   xmlns:rdf="http://www.w3.org/1999/02/22-rdf-syntax-ns#"
   xmlns:svg="http://www.w3.org/2000/svg"
   xmlns="http://www.w3.org/2000/svg"
   xmlns:xlink="http://www.w3.org/1999/xlink"
   xmlns:sodipodi="http://sodipodi.sourceforge.net/DTD/sodipodi-0.dtd"
   xmlns:inkscape="http://www.inkscape.org/namespaces/inkscape"
   width="600"
   height="200"
   viewBox="0 0 158.75 52.916668"
   version="1.1"
   id="svg8"
   inkscape:version="0.92.3 (2405546, 2018-03-11)"
   sodipodi:docname="logo.svg">
  <defs
     id="defs2">
    <linearGradient
       osb:paint="gradient"
       id="linearGradient6132">
      <stop
         id="stop6128"
         offset="0"
         style="stop-color:#ffffff;stop-opacity:1;" />
      <stop
         id="stop6130"
         offset="1"
         style="stop-color:#000000;stop-opacity:0" />
    </linearGradient>
    <linearGradient
       osb:paint="solid"
       id="linearGradient6083">
      <stop
         id="stop6081"
         offset="0"
         style="stop-color:#ffffff;stop-opacity:1;" />
    </linearGradient>
    <linearGradient
       osb:paint="gradient"
       id="linearGradient6132-4">
      <stop
         id="stop6128-0"
         offset="0"
         style="stop-color:#000000;stop-opacity:0.26838234" />
      <stop
         id="stop6130-7"
         offset="1"
         style="stop-color:#000000;stop-opacity:0" />
    </linearGradient>
    <linearGradient
       gradientTransform="translate(0.1984375,0.42994792)"
       y2="284.51498"
       x2="4.7624998"
       y1="280.77768"
       x1="0.9260416"
       gradientUnits="userSpaceOnUse"
       id="linearGradient6178"
       xlink:href="#linearGradient6132"
       inkscape:collect="always" />
  </defs>
  <sodipodi:namedview
     id="base"
     pagecolor="#ffffff"
     bordercolor="#666666"
     borderopacity="1.0"
     inkscape:pageopacity="0.0"
     inkscape:pageshadow="2"
     inkscape:zoom="1.979899"
     inkscape:cx="252.60185"
     inkscape:cy="91.574568"
     inkscape:document-units="mm"
     inkscape:current-layer="layer1"
     showgrid="false"
     units="px"
     inkscape:window-width="1920"
     inkscape:window-height="1017"
     inkscape:window-x="-8"
     inkscape:window-y="-8"
     inkscape:window-maximized="1" />
  <metadata
     id="metadata5">
    <rdf:RDF>
      <cc:Work
         rdf:about="">
        <dc:format>image/svg+xml</dc:format>
        <dc:type
           rdf:resource="http://purl.org/dc/dcmitype/StillImage" />
        <dc:title />
      </cc:Work>
    </rdf:RDF>
  </metadata>
  <g
     inkscape:label="Livello 1"
     inkscape:groupmode="layer"
     id="layer1"
     transform="translate(0,-244.08332)">
    <g
       aria-label="G2 .JS"
       style="font-style:normal;font-variant:normal;font-weight:normal;font-stretch:normal;font-size:45.98424911px;line-height:1.25;font-family:'MV Boli';-inkscape-font-specification:'MV Boli';letter-spacing:0px;word-spacing:0px;fill:#000000;fill-opacity:1;stroke:none;stroke-width:1.14960611"
       id="text3715">
      <path
         d="m 24.024974,272.27364 q -0.269439,0.0674 -0.965489,0.29189 -0.696051,0.22454 -1.571728,0.53888 -0.875676,0.29189 -1.863619,0.65115 -0.96549,0.33679 -1.841166,0.65114 -0.875677,0.29189 -1.526821,0.51642 -0.651144,0.22454 -0.875677,0.2919 -0.157172,0.0224 -0.404158,0.13472 -0.246986,0.11226 -0.516425,0.22453 -0.246985,0.11226 -0.493971,0.22453 -0.224533,0.0898 -0.359252,0.0898 -0.471518,0 -0.853223,-0.17962 -0.359252,-0.20208 -0.628691,-0.51643 -0.269439,-0.31434 -0.404159,-0.74095 -0.134719,-0.42662 -0.134719,-0.87568 0,-0.92058 0.516424,-1.45946 0.516425,-0.53888 1.212476,-0.80832 0.718504,-0.29189 1.481914,-0.3817 0.76341,-0.0898 1.257382,-0.15718 0.06736,0 0.269439,-0.0674 0.202079,-0.0674 0.449065,-0.15717 0.246985,-0.0898 0.493971,-0.15717 0.246986,-0.0674 0.404159,-0.0674 0.404158,-0.17963 1.257381,-0.53888 0.853224,-0.35925 1.86362,-0.7185 1.010396,-0.38171 1.998339,-0.65115 1.010396,-0.29189 1.7289,-0.29189 0.808317,0 1.437008,0.26944 0.62869,0.24699 1.077755,0.7185 0.449065,0.44907 0.673598,1.07776 0.246986,0.60624 0.246986,1.34719 0,0.31435 -0.04491,0.65115 -0.04491,0.31434 -0.157173,0.78586 -0.673597,2.51477 -2.065698,4.69273 -1.369648,2.15551 -3.233268,3.92932 -1.863619,1.75135 -4.108944,3.09855 -2.245325,1.34719 -4.625369,2.22287 l 0.02245,-0.0225 q -0.381705,0.15718 -0.943036,0.3368 -0.538878,0.15718 -1.145116,0.31435 -0.583784,0.13472 -1.167568,0.22453 -0.5613315,0.0898 -0.9879432,0.0898 -0.8756766,0 -1.4819143,-0.0449 -0.6062377,-0.0674 -1.0328494,-0.13472 -0.4041584,-0.0898 -0.6960506,-0.20208 -0.269439,-0.11227 -0.4939714,-0.22453 -1.2798351,-0.58379 -2.3575909,-1.3921 -1.0553026,-0.83077 -1.818713,-1.90853 Q 0.85322382,282.87157 0.42661213,281.56929 4.4517219e-7,280.24454 4.4517219e-7,278.69527 q 0,-1.66154 0.53887791482781,-3.4578 0.53887794,-1.81871 1.48191424,-3.65988 0.9430364,-1.84117 2.2004182,-3.63743 1.2798351,-1.79626 2.7617493,-3.43534 1.4819143,-1.66154 3.0760949,-3.0761 1.616634,-1.41455 3.210814,-2.49231 0.96549,-0.65114 2.065699,-1.32474 1.122662,-0.6736 2.290231,-1.21247 1.167569,-0.53888 2.357591,-0.87568 1.212475,-0.35925 2.357591,-0.35925 0.920583,0 1.818713,0.26944 0.89813,0.26944 1.616634,0.76341 0.718503,0.47151 1.167568,1.16757 0.449065,0.69605 0.449065,1.54927 0,0.3817 -0.112266,0.83077 -0.04491,0.17963 -0.179626,0.62869 -0.134719,0.44907 -0.336799,0.69605 l 0.04491,-0.0449 q -0.08981,0.2919 -0.314346,0.3368 -0.202079,0.0449 -0.426611,0.0449 -0.673598,0 -1.145116,-0.3368 -0.471518,-0.3368 -0.875676,-0.7185 -0.404159,-0.40416 -0.808317,-0.74096 -0.381705,-0.3368 -0.920583,-0.3368 H 21.71229 q -1.751353,0.38171 -3.727239,1.43701 -1.975886,1.03285 -3.951771,2.53722 -1.953433,1.48191 -3.749693,3.32308 -1.7962593,1.84116 -3.1659074,3.81705 -1.369648,1.97588 -2.2004181,4.01913 -0.8083169,2.02079 -0.8083169,3.88441 0,1.52682 0.6960506,2.62703 0.6960507,1.07776 2.0207922,2.13306 h -0.022453 q 0.6960506,0.44906 1.5043675,0.76341 0.8307701,0.31435 1.6166338,0.31435 0.8083165,0 1.7513535,-0.31435 0.965489,-0.31435 1.908526,-0.78586 0.965489,-0.47152 1.863619,-1.03285 0.920583,-0.56133 1.66154,-1.03285 2.380045,-1.54928 4.019132,-3.68233 1.639087,-2.13306 2.694389,-4.42329 0.04491,-0.11227 0.08981,-0.22454 0.04491,-0.0898 0.06736,-0.17962 0.02245,-0.11227 0.04491,-0.17963 z"
         style="font-style:normal;font-variant:normal;font-weight:normal;font-stretch:normal;font-family:'MV Boli';-inkscape-font-specification:'MV Boli';stroke-width:1.14960611"
         id="path857" />
      <path
         d="m 34.892346,283.18592 q 1.392101,-0.0898 2.133058,-0.0898 1.886073,0 6.286909,0.40415 4.42329,0.38171 6.735974,0.76342 2.312685,0.35925 2.874016,0.7185 0.561331,0.3368 0.89813,0.94304 0.336798,0.58378 0.336798,1.25738 0,0.56133 -0.853223,1.14511 -0.83077,0.60624 -1.571727,0.60624 -0.875677,0 -2.671937,-0.42661 -3.031188,-0.74096 -7.274852,-1.12266 -4.22121,-0.38171 -7.858636,-0.38171 -1.616634,0 -3.345534,0.49397 -0.965489,0.3368 -1.886072,0.3368 -0.561332,0 -0.987943,-0.3368 -0.404159,-0.3368 -0.404159,-0.92058 0,-2.0657 3.188361,-5.00707 3.210815,-2.96383 9.026206,-5.95011 7.117679,-3.65988 9.40791,-6.12974 2.290231,-2.46986 2.290231,-4.8499 0,-2.17797 -1.706447,-3.77215 -1.683993,-1.59418 -4.22121,-1.59418 -2.335138,0 -4.311023,0.78587 -1.975886,0.78586 -3.839506,2.87401 -0.76341,0.85322 -1.414554,0.85322 -0.808317,0 -1.459461,-0.56133 -0.651144,-0.58378 -0.651144,-1.32474 0,-2.29023 3.614972,-4.37838 3.637426,-2.11061 8.532234,-2.11061 4.198757,0 7.005413,2.53722 2.829109,2.53722 2.829109,6.55635 0,3.99668 -3.076095,7.36466 -3.053641,3.34554 -11.451155,7.36467 -3.59252,1.7289 -6.174643,3.95177 z"
         style="font-style:normal;font-variant:normal;font-weight:normal;font-stretch:normal;font-family:'MV Boli';-inkscape-font-specification:'MV Boli';stroke-width:1.14960611"
         id="path859" />
      <path
         d="m 93.270789,272.18383 q 0,1.54927 -1.190022,2.69439 -1.190022,1.12266 -2.716842,1.12266 -1.167569,0 -1.998339,-0.80832 -0.808317,-0.83077 -0.808317,-1.99834 0,-1.54927 1.234928,-2.71684 1.257382,-1.19002 2.76175,-1.19002 1.167568,0 1.930979,0.83077 0.785863,0.83077 0.785863,2.0657 z"
         style="font-style:normal;font-variant:normal;font-weight:normal;font-stretch:normal;font-family:'MV Boli';-inkscape-font-specification:'MV Boli';stroke-width:1.14960611"
         id="path861" />
      <path
         d="m 102.31945,277.99922 q 0.35925,0 0.56133,0.29189 0.22453,0.26944 0.3368,0.6736 0.11226,0.40416 0.13472,0.87568 0.0449,0.47151 0.0449,0.87567 v 0.85323 q 0.47152,0.74095 1.19003,1.61663 0.74095,0.85322 1.68399,1.61663 0.94304,0.74096 2.04324,1.25738 1.12267,0.49398 2.38005,0.49398 1.34719,0 2.51476,-0.62869 1.19002,-0.6287 2.20042,-1.66154 1.0104,-1.05531 1.86362,-2.4025 0.85322,-1.3472 1.52682,-2.7842 0.69605,-1.45947 1.21248,-2.89647 0.53887,-1.43701 0.92058,-2.64949 0.3817,-1.21247 0.60624,-2.08815 0.22453,-0.89813 0.31434,-1.23493 0.58379,-2.38004 0.98795,-4.55801 0.42661,-2.17796 0.42661,-4.28857 0,-0.51642 -0.31435,-0.58378 l -5.5684,1.57173 q -0.47152,0.13472 -0.76341,0.13472 -0.85323,0 -1.43701,-0.53888 -0.56133,-0.53888 -0.56133,-1.54928 0,-1.01039 0.17962,-1.61663 0.20208,-0.62869 0.60624,-0.94304 0.42661,-0.31434 1.10021,-0.40415 0.6736,-0.11227 1.63909,-0.11227 h 0.31434 q 0.53888,-0.11227 1.36965,-0.31435 0.85322,-0.20208 1.88607,-0.44906 1.03285,-0.26944 2.20042,-0.56133 1.16757,-0.31435 2.35759,-0.60624 1.19002,-0.31435 2.35759,-0.60624 1.19002,-0.29189 2.22287,-0.53888 0.0674,-0.0225 0.44907,-0.11226 0.3817,-0.0898 0.85322,-0.17963 0.47152,-0.11226 0.89813,-0.20208 0.42661,-0.0898 0.56133,-0.0898 0.26944,0 0.49398,0.15717 0.22453,0.15718 0.35925,0.40416 0.15717,0.22453 0.24698,0.53888 0.0898,0.29189 0.0898,0.56133 0,0.6736 -0.51643,1.16757 -0.51642,0.49397 -1.30229,0.87568 -0.78586,0.35925 -1.7289,0.65114 -0.92058,0.26944 -1.7289,0.51642 -0.80831,0.24699 -1.3921,0.49398 -0.56133,0.22453 -0.62869,0.51642 -0.11227,0.98794 -0.22453,2.20042 -0.11227,1.21247 -0.24699,2.31268 -0.0449,0.26944 -0.20208,1.30229 -0.13472,1.03285 -0.40416,2.51476 -0.24698,1.48192 -0.62869,3.25573 -0.35925,1.75135 -0.83077,3.4578 -0.51642,1.86362 -1.36964,3.97422 -0.83077,2.11061 -1.99834,4.10894 -1.14512,1.99834 -2.60458,3.7497 -1.45946,1.7289 -3.16591,2.85156 -0.40416,0.24698 -0.94303,0.49397 -0.53888,0.24699 -1.19003,0.42661 -0.62869,0.17963 -1.34719,0.29189 -0.69605,0.11227 -1.3921,0.11227 -1.16757,0 -2.53722,-0.31434 -1.34719,-0.31435 -2.71684,-0.89813 -1.36965,-0.58379 -2.64949,-1.39211 -1.25738,-0.83077 -2.24532,-1.81871 -0.987943,-1.0104 -1.571727,-2.15551 -0.583784,-1.14512 -0.583784,-2.4025 0,-0.96549 0.179626,-1.66154 0.202079,-0.69605 0.62869,-1.12266 0.426612,-0.42661 1.122665,-0.62869 0.7185,-0.20208 1.7289,-0.20208 z"
         style="fill:#e65f00;fill-opacity:1;stroke-width:1.14960611"
         id="path863" />
      <path
         d="m 131.75565,283.00629 q 0.76341,0.26944 1.54927,0.62869 0.80832,0.35926 1.66154,0.69605 0.85323,0.31435 1.77381,0.53888 0.94304,0.22454 1.99834,0.22454 1.23493,0 2.49231,-0.2919 1.25738,-0.29189 2.4474,-0.85322 1.21248,-0.58378 2.31269,-1.3921 1.10021,-0.83077 2.02079,-1.90853 1.0104,-1.14511 1.68399,-2.0657 0.6736,-0.94303 1.07776,-1.66154 0.42661,-0.74095 0.60624,-1.25738 0.17962,-0.53888 0.17962,-0.92058 0,-0.56133 -0.3817,-0.96549 -0.38171,-0.42661 -1.03285,-0.69605 -0.62869,-0.26944 -1.43701,-0.38171 -0.80832,-0.13472 -1.68399,-0.13472 -0.51643,0 -1.21248,0.0449 -0.69605,0.0224 -1.41455,0.0674 -0.71851,0.0224 -1.39211,0.0449 -0.67359,0.0224 -1.16756,0.0224 -0.74096,0 -1.54928,-0.15717 -0.78586,-0.17963 -1.54927,-0.56133 -0.76341,-0.38171 -1.41456,-1.03285 -0.65114,-0.65115 -1.07775,-1.61664 -0.13472,-0.31434 -0.24699,-0.74095 -0.11226,-0.42662 -0.11226,-0.92059 0,-0.53888 0.0674,-1.01039 0.0898,-0.49398 0.20207,-0.94304 0.31435,-1.12266 1.03285,-2.26778 0.74096,-1.16757 1.75136,-2.26778 1.03285,-1.10021 2.22287,-2.13305 1.21247,-1.03285 2.46986,-1.93098 1.27983,-0.92059 2.49231,-1.63909 1.23492,-0.74096 2.29023,-1.25738 1.48191,-0.71851 3.00873,-1.03285 1.54928,-0.3368 3.05364,-0.3368 0.89813,0 1.70645,0.24699 0.80832,0.22453 1.41456,0.67359 0.62869,0.44907 0.98794,1.12266 0.35925,0.65115 0.35925,1.50437 0,0.49397 -0.11227,0.83077 -0.11226,0.3368 -0.29189,0.56133 -0.17962,0.20208 -0.40416,0.2919 -0.20208,0.0898 -0.42661,0.0898 -0.60624,0 -1.12266,-0.13472 -0.49397,-0.13472 -0.96549,-0.29189 -0.47152,-0.17963 -0.94304,-0.31435 -0.47151,-0.15717 -1.03285,-0.15717 -1.66154,0 -3.39044,0.6736 -1.70644,0.65114 -3.34553,1.68399 -1.61663,1.0104 -3.07609,2.26778 -1.43701,1.25738 -2.58213,2.4474 -0.60624,0.62869 -0.89813,1.25738 -0.26944,0.62869 -0.26944,1.19003 0,0.83077 0.71851,1.30228 0.7185,0.47152 1.75135,0.47152 0.60624,0 1.36965,-0.0224 0.76341,-0.0225 1.54927,-0.0449 0.80832,-0.0449 1.54928,-0.0674 0.76341,-0.0449 1.34719,-0.0449 1.3921,0 2.67194,0.40415 1.27983,0.38171 2.26778,1.14512 0.98794,0.76341 1.57172,1.90853 0.60624,1.12266 0.60624,2.58212 0,0.89813 -0.26944,1.81871 -0.26944,0.92059 -0.74096,1.86362 -0.47151,0.92059 -1.07775,1.84117 -0.60624,0.89813 -1.27984,1.7738 -1.21247,1.57173 -2.71684,2.96383 -1.48191,1.3921 -3.16591,2.42495 -1.68399,1.03285 -3.57006,1.63909 -1.86362,0.60624 -3.83951,0.60624 -0.85322,0 -1.75135,-0.15717 -0.89813,-0.15718 -1.77381,-0.47152 -0.87568,-0.29189 -1.66154,-0.74096 -0.76341,-0.47152 -1.34719,-1.0553 -0.58379,-0.58379 -0.94304,-1.27984 -0.3368,-0.7185 -0.3368,-1.54927 0,-0.40416 0.11227,-0.76341 0.13472,-0.38171 0.62869,-0.38171 z m 11.40625,-27.68485 z"
         style="fill:#e65f00;fill-opacity:1;stroke-width:1.14960611"
         id="path865" />
    </g>
    <g
       transform="matrix(0.98653721,0,0,0.98653721,93.470114,-13.557911)"
       id="layer1-4"
       inkscape:label="Livello 1">
      <g
         transform="matrix(2.2319834,0,0,2.2319834,-34.10954,-356.02506)"
         id="layer1-1"
         inkscape:label="Livello 1"
         style="stroke-width:0.44803202;stroke-miterlimit:4;stroke-dasharray:none">
        <circle
           r="8.3364105"
           style="fill:#ffffff;fill-opacity:1;stroke:#000000;stroke-width:0.44803202;stroke-miterlimit:4;stroke-dasharray:none;stroke-opacity:1"
           cy="288.53333"
           cx="8.4666672"
           id="path3715" />
        <path
           sodipodi:nodetypes="ccc"
           inkscape:connector-curvature="0"
           id="path4621"
           d="m 0.95911462,288.76484 c -0.23046609,-4.37608 3.77031258,-8.36746 8.06979158,-7.67292 -3.5057291,0.49608 -6.9122395,3.60495 -8.06979158,7.67292 z"
           style="fill:url(#linearGradient6178);fill-opacity:1;stroke:none;stroke-width:0.44803202;stroke-linecap:butt;stroke-linejoin:round;stroke-miterlimit:4;stroke-dasharray:none;stroke-opacity:1" />
      </g>
    </g>
  </g>
</svg>
